<svg xmlns="http://www.w3.org/2000/svg" width="128" height="128" viewBox="0 0 128 128">
  <defs>
    <linearGradient id="bg" x1="0" y1="0" x2="0" y2="1">
      <stop offset="0" stop-color="#18273f"/>
      <stop offset="1" stop-color="#0b131f"/>
    </linearGradient>
  </defs>
  <rect x="0" y="0" width="128" height="128" rx="28" fill="url(#bg)"/>

  <!-- headphone band arcing over the book -->
  <path d="M26 68 A40 40 0 0 1 102 68" fill="none" stroke="#f5a63d" stroke-width="8" stroke-linecap="round"/>

  <!-- book -->
  <rect x="42" y="44" width="44" height="60" rx="6" fill="#eef1f4"/>
  <rect x="42" y="44" width="9" height="60" rx="4" fill="#d6dde6"/>
  <line x1="59" y1="60" x2="79" y2="60" stroke="#f5a63d" stroke-width="3.5" stroke-linecap="round"/>
  <line x1="59" y1="70" x2="79" y2="70" stroke="#c9832f" stroke-width="3.5" stroke-linecap="round" opacity="0.7"/>
  <line x1="59" y1="80" x2="72" y2="80" stroke="#c9832f" stroke-width="3.5" stroke-linecap="round" opacity="0.5"/>

  <!-- ear cups -->
  <rect x="19" y="58" width="16" height="34" rx="8" fill="#f5a63d"/>
  <rect x="93" y="58" width="16" height="34" rx="8" fill="#f5a63d"/>
  <rect x="23" y="64" width="8" height="22" rx="4" fill="#0b131f" opacity="0.35"/>
  <rect x="97" y="64" width="8" height="22" rx="4" fill="#0b131f" opacity="0.35"/>
</svg>
